<svg xmlns="http://www.w3.org/2000/svg" xmlns:xlink="http://www.w3.org/1999/xlink" width="220" zoomAndPan="magnify" viewBox="0 0 165 52.499999" height="70" preserveAspectRatio="xMidYMid meet" version="1.0"><defs><g/><clipPath id="09977ec25f"><path d="M 57 0 L 162 0 L 162 52.003906 L 57 52.003906 Z M 57 0 " clip-rule="nonzero"/></clipPath><clipPath id="0426cb999f"><rect x="0" width="105" y="0" height="53"/></clipPath></defs><path fill="#000000" d="M 18.675781 49.070312 C 17.097656 48.933594 15.503906 48.542969 13.996094 48.03125 C 9.546875 46.515625 7.15625 43.261719 6.660156 38.660156 C 6.304688 35.390625 6.132812 32.101562 5.933594 28.808594 C 5.738281 25.542969 5.496094 22.277344 5.496094 19.015625 C 5.496094 16.238281 5.828125 13.460938 6.9375 10.855469 C 8.191406 7.921875 10.363281 5.945312 13.3125 4.796875 C 15.671875 3.878906 18.152344 3.582031 20.640625 3.289062 C 25.410156 2.742188 30.191406 2.546875 34.984375 2.863281 C 38.753906 3.109375 42.5 3.554688 45.984375 5.125 C 48.324219 6.179688 49.980469 7.9375 50.804688 10.425781 C 51.726562 13.191406 52.070312 16.050781 52.304688 18.933594 C 52.664062 23.371094 52.761719 27.816406 52.558594 32.265625 C 52.417969 35.242188 51.9375 38.152344 50.75 40.886719 C 48.894531 45.167969 45.851562 48.140625 41.085938 48.910156 C 39.425781 49.179688 37.722656 49.269531 36.042969 49.3125 C 33.542969 49.378906 31.039062 49.328125 28.535156 49.328125 Z M 29.859375 45.640625 C 33.367188 45.484375 36.484375 45.378906 39.605469 45.191406 C 42.054688 45.046875 44.078125 44 45.617188 42.050781 C 47.726562 39.367188 48.417969 36.199219 48.621094 32.925781 C 48.957031 27.574219 48.789062 22.230469 48.195312 16.902344 C 47.980469 14.976562 47.683594 13.085938 46.589844 11.414062 C 46.300781 10.96875 46.070312 10.480469 45.804688 10.019531 C 45.105469 8.824219 44.199219 7.757812 42.855469 7.390625 C 39.875 6.578125 36.800781 6.179688 33.71875 6.183594 C 30.300781 6.191406 26.867188 6.265625 23.464844 6.550781 C 20.898438 6.765625 18.339844 7.261719 15.820312 7.820312 C 12.695312 8.511719 10.867188 10.640625 10.066406 13.675781 C 9.238281 16.835938 9.242188 20.070312 9.433594 23.308594 C 9.621094 26.402344 9.871094 29.496094 10.101562 32.585938 C 10.25 34.550781 10.351562 36.515625 10.597656 38.46875 C 10.984375 41.453125 12.570312 43.554688 15.523438 44.410156 C 16.933594 44.816406 18.398438 45.175781 19.851562 45.265625 C 23.308594 45.484375 26.773438 45.535156 29.859375 45.640625 Z M 29.859375 45.640625 " fill-opacity="1" fill-rule="nonzero"/><path fill="#aeb1ff" d="M 29.859375 45.640625 C 26.773438 45.535156 23.308594 45.484375 19.851562 45.265625 C 18.394531 45.175781 16.933594 44.808594 15.523438 44.410156 C 12.570312 43.554688 10.984375 41.453125 10.597656 38.46875 C 10.347656 36.523438 10.246094 34.550781 10.101562 32.585938 C 9.863281 29.496094 9.621094 26.40625 9.433594 23.308594 C 9.242188 20.074219 9.238281 16.84375 10.066406 13.675781 C 10.867188 10.644531 12.695312 8.511719 15.820312 7.820312 C 18.339844 7.261719 20.898438 6.765625 23.464844 6.550781 C 26.867188 6.261719 30.300781 6.191406 33.71875 6.183594 C 36.808594 6.179688 39.875 6.582031 42.855469 7.390625 C 44.199219 7.761719 45.105469 8.824219 45.804688 10.019531 C 46.070312 10.480469 46.300781 10.96875 46.589844 11.414062 C 47.683594 13.078125 47.980469 14.976562 48.195312 16.902344 C 48.789062 22.230469 48.957031 27.574219 48.625 32.925781 C 48.417969 36.199219 47.726562 39.367188 45.617188 42.050781 C 44.078125 44 42.0625 45.046875 39.605469 45.191406 C 36.484375 45.375 33.367188 45.480469 29.859375 45.640625 Z M 23.441406 36.191406 C 23.613281 36.496094 23.757812 36.972656 24.074219 37.261719 C 24.828125 37.960938 25.972656 37.617188 26.429688 36.566406 C 26.765625 35.78125 27.023438 34.960938 27.265625 34.140625 C 29.132812 27.785156 30.984375 21.421875 32.847656 15.058594 C 33.152344 14.011719 32.679688 13.027344 31.71875 12.730469 C 30.78125 12.441406 29.800781 13.027344 29.507812 14.066406 C 29.371094 14.539062 29.277344 15.019531 29.140625 15.496094 C 27.480469 21.449219 25.816406 27.398438 24.160156 33.355469 C 23.914062 34.238281 23.710938 35.132812 23.441406 36.191406 Z M 15.472656 24.878906 C 17.78125 23.027344 19.957031 21.277344 22.144531 19.535156 C 22.875 18.953125 23.117188 18.257812 22.769531 17.589844 C 22.417969 16.914062 21.597656 16.632812 20.761719 16.980469 C 20.238281 17.203125 19.710938 17.484375 19.265625 17.839844 C 16.976562 19.667969 14.710938 21.515625 12.441406 23.378906 C 11.875 23.84375 11.585938 24.507812 11.785156 25.210938 C 11.949219 25.8125 12.222656 26.445312 12.625 26.90625 C 14.496094 29.066406 16.890625 30.582031 19.25 32.132812 C 20.207031 32.757812 21.445312 32.1875 21.722656 31.136719 C 21.9375 30.316406 21.625 29.660156 20.976562 29.167969 C 19.957031 28.390625 18.914062 27.640625 17.898438 26.855469 C 17.105469 26.242188 16.34375 25.589844 15.472656 24.878906 Z M 42.28125 24.847656 C 42.039062 25.054688 41.878906 25.222656 41.691406 25.359375 C 39.503906 27 37.3125 28.636719 35.117188 30.277344 C 34.234375 30.941406 34.003906 31.894531 34.535156 32.679688 C 35.085938 33.484375 36.144531 33.65625 37.023438 32.953125 C 39.773438 30.742188 42.5 28.507812 45.191406 26.230469 C 46.265625 25.324219 46.183594 24.230469 45.089844 23.339844 C 43.878906 22.355469 42.652344 21.390625 41.414062 20.441406 C 40.410156 19.671875 39.382812 18.945312 38.355469 18.203125 C 38.132812 18.042969 37.894531 17.886719 37.648438 17.769531 C 36.882812 17.417969 36.074219 17.640625 35.671875 18.296875 C 35.285156 18.929688 35.417969 19.742188 36.066406 20.246094 C 36.929688 20.917969 37.835938 21.523438 38.710938 22.175781 C 39.894531 23.046875 41.0625 23.933594 42.28125 24.847656 Z M 42.28125 24.847656 " fill-opacity="1" fill-rule="nonzero"/><path fill="#000000" d="M 23.441406 36.191406 C 23.710938 35.128906 23.914062 34.234375 24.160156 33.355469 C 25.816406 27.402344 27.484375 21.453125 29.140625 15.496094 C 29.277344 15.027344 29.371094 14.539062 29.507812 14.066406 C 29.800781 13.027344 30.78125 12.441406 31.71875 12.730469 C 32.679688 13.027344 33.152344 14.011719 32.847656 15.058594 C 30.984375 21.421875 29.132812 27.785156 27.265625 34.140625 C 27.023438 34.960938 26.765625 35.78125 26.429688 36.566406 C 25.980469 37.617188 24.828125 37.953125 24.074219 37.261719 C 23.765625 36.972656 23.621094 36.5 23.441406 36.191406 Z M 23.441406 36.191406 " fill-opacity="1" fill-rule="nonzero"/><path fill="#000000" d="M 15.472656 24.878906 C 16.339844 25.589844 17.105469 26.242188 17.894531 26.851562 C 18.90625 27.632812 19.953125 28.382812 20.972656 29.160156 C 21.621094 29.65625 21.9375 30.316406 21.71875 31.128906 C 21.4375 32.179688 20.199219 32.753906 19.246094 32.125 C 16.886719 30.578125 14.492188 29.058594 12.621094 26.898438 C 12.21875 26.433594 11.949219 25.804688 11.777344 25.207031 C 11.578125 24.5 11.871094 23.839844 12.4375 23.371094 C 14.699219 21.511719 16.972656 19.664062 19.261719 17.835938 C 19.707031 17.480469 20.230469 17.195312 20.757812 16.976562 C 21.59375 16.628906 22.414062 16.90625 22.761719 17.582031 C 23.109375 18.257812 22.871094 18.949219 22.140625 19.527344 C 19.957031 21.277344 17.78125 23.027344 15.472656 24.878906 Z M 15.472656 24.878906 " fill-opacity="1" fill-rule="nonzero"/><path fill="#000000" d="M 42.28125 24.847656 C 41.0625 23.933594 39.894531 23.046875 38.710938 22.171875 C 37.832031 21.523438 36.925781 20.910156 36.066406 20.242188 C 35.417969 19.738281 35.285156 18.921875 35.671875 18.289062 C 36.074219 17.636719 36.882812 17.410156 37.648438 17.765625 C 37.902344 17.882812 38.132812 18.039062 38.355469 18.199219 C 39.378906 18.9375 40.410156 19.667969 41.414062 20.433594 C 42.652344 21.382812 43.878906 22.347656 45.089844 23.335938 C 46.183594 24.226562 46.265625 25.316406 45.191406 26.222656 C 42.5 28.503906 39.765625 30.738281 37.023438 32.945312 C 36.148438 33.648438 35.085938 33.476562 34.535156 32.671875 C 34 31.890625 34.230469 30.9375 35.117188 30.273438 C 37.3125 28.636719 39.503906 26.996094 41.691406 25.355469 C 41.878906 25.222656 42.046875 25.054688 42.28125 24.847656 Z M 42.28125 24.847656 " fill-opacity="1" fill-rule="nonzero"/><g clip-path="url(#09977ec25f)"><g transform="matrix(1, 0, 0, 1, 57, 0)"><g clip-path="url(#0426cb999f)"><g fill="#000000" fill-opacity="1"><g transform="translate(0.397165, 18.030488)"><g><path d="M 1.25 -8.515625 L 4.53125 -8.515625 L 4.53125 -0.109375 C 4.382812 -0.078125 4.175781 -0.0390625 3.90625 0 C 3.644531 0.0390625 3.359375 0.0625 3.046875 0.0625 C 2.492188 0.0625 2.054688 -0.0976562 1.734375 -0.421875 C 1.410156 -0.742188 1.25 -1.179688 1.25 -1.734375 Z M 4.53125 -3.109375 L 1.25 -3.109375 L 1.25 -9.890625 C 1.25 -10.441406 1.410156 -10.878906 1.734375 -11.203125 C 2.054688 -11.523438 2.492188 -11.6875 3.046875 -11.6875 C 3.359375 -11.6875 3.644531 -11.664062 3.90625 -11.625 C 4.175781 -11.582031 4.382812 -11.546875 4.53125 -11.515625 Z M 3.046875 -4.625 L 3.046875 -7.25 L 8.875 -7.25 C 8.957031 -7.101562 9.035156 -6.921875 9.109375 -6.703125 C 9.179688 -6.484375 9.21875 -6.242188 9.21875 -5.984375 C 9.21875 -5.503906 9.113281 -5.15625 8.90625 -4.9375 C 8.695312 -4.726562 8.414062 -4.625 8.0625 -4.625 Z M 3.046875 0.0625 L 3.046875 -2.609375 L 9.484375 -2.609375 C 9.578125 -2.460938 9.65625 -2.273438 9.71875 -2.046875 C 9.789062 -1.816406 9.828125 -1.566406 9.828125 -1.296875 C 9.828125 -0.816406 9.722656 -0.46875 9.515625 -0.25 C 9.316406 -0.0390625 9.035156 0.0625 8.671875 0.0625 Z M 3.046875 -9.046875 L 3.046875 -11.6875 L 9.40625 -11.6875 C 9.5 -11.539062 9.578125 -11.359375 9.640625 -11.140625 C 9.710938 -10.921875 9.75 -10.675781 9.75 -10.40625 C 9.75 -9.9375 9.644531 -9.59375 9.4375 -9.375 C 9.238281 -9.15625 8.957031 -9.046875 8.59375 -9.046875 Z M 3.046875 -9.046875 "/></g></g></g><g fill="#000000" fill-opacity="1"><g transform="translate(10.667699, 18.030488)"><g><path d="M 7 -2.53125 L 7 -8.125 L 10.25 -8.125 L 10.25 -2.0625 C 10.25 -1.738281 10.179688 -1.460938 10.046875 -1.234375 C 9.921875 -1.003906 9.707031 -0.796875 9.40625 -0.609375 C 9.03125 -0.367188 8.546875 -0.15625 7.953125 0.03125 C 7.367188 0.21875 6.695312 0.3125 5.9375 0.3125 C 4.820312 0.3125 3.863281 0.125 3.0625 -0.25 C 2.269531 -0.625 1.660156 -1.179688 1.234375 -1.921875 C 0.804688 -2.660156 0.59375 -3.566406 0.59375 -4.640625 C 0.59375 -5.773438 0.8125 -6.710938 1.25 -7.453125 C 1.6875 -8.191406 2.28125 -8.742188 3.03125 -9.109375 C 3.789062 -9.472656 4.628906 -9.65625 5.546875 -9.65625 C 6.003906 -9.65625 6.398438 -9.609375 6.734375 -9.515625 C 7.066406 -9.429688 7.34375 -9.332031 7.5625 -9.21875 L 7.5625 -6.5625 C 7.394531 -6.6875 7.175781 -6.804688 6.90625 -6.921875 C 6.644531 -7.035156 6.347656 -7.09375 6.015625 -7.09375 C 5.578125 -7.09375 5.203125 -7.003906 4.890625 -6.828125 C 4.578125 -6.648438 4.335938 -6.378906 4.171875 -6.015625 C 4.003906 -5.648438 3.921875 -5.191406 3.921875 -4.640625 C 3.921875 -3.835938 4.09375 -3.242188 4.4375 -2.859375 C 4.789062 -2.472656 5.285156 -2.28125 5.921875 -2.28125 C 6.148438 -2.28125 6.359375 -2.304688 6.546875 -2.359375 C 6.742188 -2.421875 6.894531 -2.476562 7 -2.53125 Z M 10.25 -7.5 L 6.984375 -7.5 L 6.984375 -12.578125 C 7.117188 -12.609375 7.316406 -12.644531 7.578125 -12.6875 C 7.847656 -12.726562 8.132812 -12.75 8.4375 -12.75 C 9.082031 -12.75 9.546875 -12.640625 9.828125 -12.421875 C 10.109375 -12.210938 10.25 -11.804688 10.25 -11.203125 Z M 10.25 -7.5 "/></g></g></g><g fill="#000000" fill-opacity="1"><g transform="translate(21.959604, 18.030488)"><g><path d="M 1 -3.71875 L 1 -5 L 4.28125 -5 L 4.28125 -3.71875 C 4.28125 -3.207031 4.410156 -2.832031 4.671875 -2.59375 C 4.941406 -2.363281 5.3125 -2.25 5.78125 -2.25 C 6.082031 -2.25 6.328125 -2.273438 6.515625 -2.328125 C 6.710938 -2.378906 6.851562 -2.429688 6.9375 -2.484375 L 6.9375 -5 L 10.21875 -5 L 10.21875 -2 C 10.21875 -1.675781 10.148438 -1.394531 10.015625 -1.15625 C 9.878906 -0.925781 9.675781 -0.726562 9.40625 -0.5625 C 8.957031 -0.28125 8.421875 -0.0664062 7.796875 0.078125 C 7.171875 0.234375 6.492188 0.3125 5.765625 0.3125 C 4.835938 0.3125 4.015625 0.175781 3.296875 -0.09375 C 2.578125 -0.375 2.015625 -0.8125 1.609375 -1.40625 C 1.203125 -2 1 -2.769531 1 -3.71875 Z M 10.21875 -4.171875 L 6.9375 -4.171875 L 6.9375 -9.328125 C 7.082031 -9.367188 7.285156 -9.40625 7.546875 -9.4375 C 7.804688 -9.476562 8.09375 -9.5 8.40625 -9.5 C 9.050781 -9.5 9.515625 -9.394531 9.796875 -9.1875 C 10.078125 -8.976562 10.21875 -8.570312 10.21875 -7.96875 Z M 4.28125 -4.171875 L 1 -4.171875 L 1 -9.328125 C 1.144531 -9.367188 1.347656 -9.40625 1.609375 -9.4375 C 1.867188 -9.476562 2.15625 -9.5 2.46875 -9.5 C 3.113281 -9.5 3.578125 -9.394531 3.859375 -9.1875 C 4.140625 -8.976562 4.28125 -8.570312 4.28125 -7.96875 Z M 4.28125 -4.171875 "/></g></g></g><g fill="#000000" fill-opacity="1"><g transform="translate(33.174438, 18.030488)"><g><path d="M 6.28125 -7.078125 C 5.644531 -7.078125 5.09375 -6.867188 4.625 -6.453125 C 4.15625 -6.046875 3.921875 -5.441406 3.921875 -4.640625 C 3.921875 -3.847656 4.144531 -3.257812 4.59375 -2.875 C 5.039062 -2.488281 5.597656 -2.296875 6.265625 -2.296875 C 6.648438 -2.296875 6.992188 -2.34375 7.296875 -2.4375 C 7.597656 -2.53125 7.851562 -2.628906 8.0625 -2.734375 C 8.300781 -2.554688 8.484375 -2.363281 8.609375 -2.15625 C 8.734375 -1.945312 8.796875 -1.695312 8.796875 -1.40625 C 8.796875 -0.894531 8.539062 -0.484375 8.03125 -0.171875 C 7.519531 0.140625 6.796875 0.296875 5.859375 0.296875 C 4.796875 0.296875 3.867188 0.109375 3.078125 -0.265625 C 2.285156 -0.640625 1.671875 -1.195312 1.234375 -1.9375 C 0.804688 -2.675781 0.59375 -3.578125 0.59375 -4.640625 C 0.59375 -5.773438 0.832031 -6.710938 1.3125 -7.453125 C 1.789062 -8.191406 2.421875 -8.742188 3.203125 -9.109375 C 3.984375 -9.472656 4.835938 -9.65625 5.765625 -9.65625 C 6.679688 -9.65625 7.390625 -9.488281 7.890625 -9.15625 C 8.398438 -8.820312 8.65625 -8.390625 8.65625 -7.859375 C 8.65625 -7.617188 8.597656 -7.390625 8.484375 -7.171875 C 8.367188 -6.960938 8.234375 -6.78125 8.078125 -6.625 C 7.859375 -6.726562 7.59375 -6.828125 7.28125 -6.921875 C 6.976562 -7.023438 6.644531 -7.078125 6.28125 -7.078125 Z M 6.28125 -7.078125 "/></g></g></g><g fill="#000000" fill-opacity="1"><g transform="translate(42.597207, 18.030488)"><g><path d="M 5.015625 0.3125 C 3.660156 0.3125 2.578125 0.0507812 1.765625 -0.46875 C 0.953125 -0.988281 0.546875 -1.773438 0.546875 -2.828125 C 0.546875 -3.722656 0.8125 -4.40625 1.34375 -4.875 C 1.875 -5.351562 2.6875 -5.648438 3.78125 -5.765625 L 6.3125 -6.03125 L 6.3125 -6.171875 C 6.3125 -6.546875 6.144531 -6.8125 5.8125 -6.96875 C 5.488281 -7.132812 5.015625 -7.21875 4.390625 -7.21875 C 3.921875 -7.21875 3.453125 -7.164062 2.984375 -7.0625 C 2.515625 -6.957031 2.09375 -6.828125 1.71875 -6.671875 C 1.550781 -6.785156 1.410156 -6.960938 1.296875 -7.203125 C 1.179688 -7.441406 1.125 -7.6875 1.125 -7.9375 C 1.125 -8.5625 1.453125 -9 2.109375 -9.25 C 2.472656 -9.394531 2.910156 -9.5 3.421875 -9.5625 C 3.929688 -9.625 4.410156 -9.65625 4.859375 -9.65625 C 6.253906 -9.65625 7.375 -9.367188 8.21875 -8.796875 C 9.0625 -8.222656 9.484375 -7.332031 9.484375 -6.125 L 9.484375 -1.8125 C 9.484375 -1.476562 9.390625 -1.203125 9.203125 -0.984375 C 9.015625 -0.773438 8.796875 -0.59375 8.546875 -0.4375 C 8.128906 -0.195312 7.625 -0.015625 7.03125 0.109375 C 6.445312 0.242188 5.773438 0.3125 5.015625 0.3125 Z M 5.015625 -2.078125 C 5.234375 -2.078125 5.472656 -2.097656 5.734375 -2.140625 C 5.992188 -2.191406 6.191406 -2.253906 6.328125 -2.328125 L 6.328125 -3.875 L 4.9375 -3.765625 C 4.570312 -3.734375 4.273438 -3.648438 4.046875 -3.515625 C 3.816406 -3.390625 3.703125 -3.203125 3.703125 -2.953125 C 3.703125 -2.691406 3.800781 -2.476562 4 -2.3125 C 4.195312 -2.15625 4.535156 -2.078125 5.015625 -2.078125 Z M 5.015625 -2.078125 "/></g></g></g><g fill="#000000" fill-opacity="1"><g transform="translate(53.079797, 18.030488)"><g><path d="M 1.046875 -5.09375 L 4.28125 -5.09375 L 4.28125 -3.21875 C 4.28125 -2.894531 4.382812 -2.660156 4.59375 -2.515625 C 4.8125 -2.367188 5.113281 -2.296875 5.5 -2.296875 C 5.6875 -2.296875 5.882812 -2.3125 6.09375 -2.34375 C 6.300781 -2.375 6.476562 -2.414062 6.625 -2.46875 C 6.75 -2.34375 6.851562 -2.1875 6.9375 -2 C 7.019531 -1.820312 7.0625 -1.613281 7.0625 -1.375 C 7.0625 -0.894531 6.875 -0.492188 6.5 -0.171875 C 6.132812 0.140625 5.488281 0.296875 4.5625 0.296875 C 3.4375 0.296875 2.566406 0.0390625 1.953125 -0.46875 C 1.347656 -0.988281 1.046875 -1.828125 1.046875 -2.984375 Z M 3.15625 -6.65625 L 3.15625 -9.15625 L 6.8125 -9.15625 C 6.882812 -9.03125 6.957031 -8.859375 7.03125 -8.640625 C 7.101562 -8.421875 7.140625 -8.179688 7.140625 -7.921875 C 7.140625 -7.472656 7.035156 -7.148438 6.828125 -6.953125 C 6.628906 -6.753906 6.363281 -6.65625 6.03125 -6.65625 Z M 4.28125 -4.625 L 1.046875 -4.625 L 1.046875 -11.546875 C 1.179688 -11.585938 1.378906 -11.628906 1.640625 -11.671875 C 1.910156 -11.722656 2.191406 -11.75 2.484375 -11.75 C 3.117188 -11.75 3.578125 -11.640625 3.859375 -11.421875 C 4.140625 -11.203125 4.28125 -10.796875 4.28125 -10.203125 Z M 4.28125 -4.625 "/></g></g></g><g fill="#000000" fill-opacity="1"><g transform="translate(60.729781, 18.030488)"><g><path d="M 0.921875 -11.96875 C 0.921875 -12.457031 1.085938 -12.867188 1.421875 -13.203125 C 1.753906 -13.535156 2.1875 -13.703125 2.71875 -13.703125 C 3.25 -13.703125 3.679688 -13.535156 4.015625 -13.203125 C 4.347656 -12.867188 4.515625 -12.457031 4.515625 -11.96875 C 4.515625 -11.5 4.347656 -11.09375 4.015625 -10.75 C 3.679688 -10.40625 3.25 -10.234375 2.71875 -10.234375 C 2.1875 -10.234375 1.753906 -10.40625 1.421875 -10.75 C 1.085938 -11.09375 0.921875 -11.5 0.921875 -11.96875 Z M 1.078125 -5.09375 L 4.359375 -5.09375 L 4.359375 -0.015625 C 4.210938 0.015625 4.007812 0.0507812 3.75 0.09375 C 3.488281 0.132812 3.203125 0.15625 2.890625 0.15625 C 2.265625 0.15625 1.804688 0.046875 1.515625 -0.171875 C 1.222656 -0.390625 1.078125 -0.796875 1.078125 -1.390625 Z M 4.359375 -3.375 L 1.078125 -3.375 L 1.078125 -9.234375 C 1.222656 -9.273438 1.425781 -9.3125 1.6875 -9.34375 C 1.945312 -9.382812 2.234375 -9.40625 2.546875 -9.40625 C 3.191406 -9.40625 3.65625 -9.296875 3.9375 -9.078125 C 4.21875 -8.867188 4.359375 -8.460938 4.359375 -7.859375 Z M 4.359375 -3.375 "/></g></g></g><g fill="#000000" fill-opacity="1"><g transform="translate(66.163768, 18.030488)"><g><path d="M 10.703125 -4.6875 C 10.703125 -3.65625 10.492188 -2.765625 10.078125 -2.015625 C 9.660156 -1.273438 9.070312 -0.703125 8.3125 -0.296875 C 7.5625 0.109375 6.675781 0.3125 5.65625 0.3125 C 4.632812 0.3125 3.742188 0.113281 2.984375 -0.28125 C 2.222656 -0.6875 1.632812 -1.257812 1.21875 -2 C 0.800781 -2.75 0.59375 -3.644531 0.59375 -4.6875 C 0.59375 -5.695312 0.804688 -6.570312 1.234375 -7.3125 C 1.660156 -8.0625 2.25 -8.640625 3 -9.046875 C 3.757812 -9.453125 4.644531 -9.65625 5.65625 -9.65625 C 6.664062 -9.65625 7.546875 -9.445312 8.296875 -9.03125 C 9.046875 -8.625 9.632812 -8.046875 10.0625 -7.296875 C 10.488281 -6.554688 10.703125 -5.6875 10.703125 -4.6875 Z M 5.65625 -7.09375 C 5.125 -7.09375 4.707031 -6.882812 4.40625 -6.46875 C 4.101562 -6.050781 3.953125 -5.457031 3.953125 -4.6875 C 3.953125 -3.882812 4.097656 -3.273438 4.390625 -2.859375 C 4.691406 -2.453125 5.113281 -2.25 5.65625 -2.25 C 6.1875 -2.25 6.597656 -2.457031 6.890625 -2.875 C 7.191406 -3.300781 7.34375 -3.90625 7.34375 -4.6875 C 7.34375 -5.445312 7.191406 -6.035156 6.890625 -6.453125 C 6.585938 -6.878906 6.175781 -7.09375 5.65625 -7.09375 Z M 5.65625 -7.09375 "/></g></g></g><g fill="#000000" fill-opacity="1"><g transform="translate(77.455673, 18.030488)"><g><path d="M 10.21875 -6.03125 L 10.21875 -4.265625 L 6.9375 -4.265625 L 6.9375 -5.9375 C 6.9375 -6.332031 6.816406 -6.625 6.578125 -6.8125 C 6.347656 -7 6.039062 -7.09375 5.65625 -7.09375 C 5.394531 -7.09375 5.148438 -7.0625 4.921875 -7 C 4.703125 -6.9375 4.488281 -6.851562 4.28125 -6.75 L 4.28125 -4.265625 L 1 -4.265625 L 1 -7.1875 C 1 -7.539062 1.070312 -7.828125 1.21875 -8.046875 C 1.375 -8.265625 1.578125 -8.460938 1.828125 -8.640625 C 2.265625 -8.941406 2.816406 -9.1875 3.484375 -9.375 C 4.160156 -9.5625 4.894531 -9.65625 5.6875 -9.65625 C 7.132812 -9.65625 8.25 -9.335938 9.03125 -8.703125 C 9.820312 -8.066406 10.21875 -7.175781 10.21875 -6.03125 Z M 1 -5.09375 L 4.28125 -5.09375 L 4.28125 -0.015625 C 4.132812 0.015625 3.929688 0.0507812 3.671875 0.09375 C 3.410156 0.132812 3.125 0.15625 2.8125 0.15625 C 2.1875 0.15625 1.726562 0.046875 1.4375 -0.171875 C 1.144531 -0.390625 1 -0.796875 1 -1.390625 Z M 6.9375 -5.09375 L 10.21875 -5.09375 L 10.21875 -0.015625 C 10.070312 0.015625 9.867188 0.0507812 9.609375 0.09375 C 9.347656 0.132812 9.0625 0.15625 8.75 0.15625 C 8.125 0.15625 7.664062 0.046875 7.375 -0.171875 C 7.082031 -0.390625 6.9375 -0.796875 6.9375 -1.390625 Z M 6.9375 -5.09375 "/></g></g></g><g fill="#000000" fill-opacity="1"><g transform="translate(88.689775, 18.030488)"><g><path d="M 5.015625 0.3125 C 3.660156 0.3125 2.578125 0.0507812 1.765625 -0.46875 C 0.953125 -0.988281 0.546875 -1.773438 0.546875 -2.828125 C 0.546875 -3.722656 0.8125 -4.40625 1.34375 -4.875 C 1.875 -5.351562 2.6875 -5.648438 3.78125 -5.765625 L 6.3125 -6.03125 L 6.3125 -6.171875 C 6.3125 -6.546875 6.144531 -6.8125 5.8125 -6.96875 C 5.488281 -7.132812 5.015625 -7.21875 4.390625 -7.21875 C 3.921875 -7.21875 3.453125 -7.164062 2.984375 -7.0625 C 2.515625 -6.957031 2.09375 -6.828125 1.71875 -6.671875 C 1.550781 -6.785156 1.410156 -6.960938 1.296875 -7.203125 C 1.179688 -7.441406 1.125 -7.6875 1.125 -7.9375 C 1.125 -8.5625 1.453125 -9 2.109375 -9.25 C 2.472656 -9.394531 2.910156 -9.5 3.421875 -9.5625 C 3.929688 -9.625 4.410156 -9.65625 4.859375 -9.65625 C 6.253906 -9.65625 7.375 -9.367188 8.21875 -8.796875 C 9.0625 -8.222656 9.484375 -7.332031 9.484375 -6.125 L 9.484375 -1.8125 C 9.484375 -1.476562 9.390625 -1.203125 9.203125 -0.984375 C 9.015625 -0.773438 8.796875 -0.59375 8.546875 -0.4375 C 8.128906 -0.195312 7.625 -0.015625 7.03125 0.109375 C 6.445312 0.242188 5.773438 0.3125 5.015625 0.3125 Z M 5.015625 -2.078125 C 5.234375 -2.078125 5.472656 -2.097656 5.734375 -2.140625 C 5.992188 -2.191406 6.191406 -2.253906 6.328125 -2.328125 L 6.328125 -3.875 L 4.9375 -3.765625 C 4.570312 -3.734375 4.273438 -3.648438 4.046875 -3.515625 C 3.816406 -3.390625 3.703125 -3.203125 3.703125 -2.953125 C 3.703125 -2.691406 3.800781 -2.476562 4 -2.3125 C 4.195312 -2.15625 4.535156 -2.078125 5.015625 -2.078125 Z M 5.015625 -2.078125 "/></g></g></g><g fill="#000000" fill-opacity="1"><g transform="translate(99.172366, 18.030488)"><g><path d="M 1.09375 -5.09375 L 4.375 -5.09375 L 4.375 -0.015625 C 4.238281 0.015625 4.035156 0.0507812 3.765625 0.09375 C 3.503906 0.132812 3.21875 0.15625 2.90625 0.15625 C 2.28125 0.15625 1.820312 0.046875 1.53125 -0.171875 C 1.238281 -0.390625 1.09375 -0.796875 1.09375 -1.390625 Z M 4.375 -3.375 L 1.09375 -3.375 L 1.09375 -12.578125 C 1.238281 -12.609375 1.441406 -12.644531 1.703125 -12.6875 C 1.972656 -12.726562 2.257812 -12.75 2.5625 -12.75 C 3.207031 -12.75 3.671875 -12.640625 3.953125 -12.421875 C 4.234375 -12.210938 4.375 -11.804688 4.375 -11.203125 Z M 4.375 -3.375 "/></g></g></g><g fill="#000000" fill-opacity="1"><g transform="translate(21.111572, 44.337659)"><g><path d="M 1.25 -3.625 L 1.25 -10.578125 C 1.25 -10.847656 1.328125 -11.054688 1.484375 -11.203125 C 1.640625 -11.359375 1.835938 -11.476562 2.078125 -11.5625 C 2.515625 -11.71875 3.035156 -11.832031 3.640625 -11.90625 C 4.242188 -11.976562 4.785156 -12.015625 5.265625 -12.015625 C 7.023438 -12.015625 8.375 -11.632812 9.3125 -10.875 C 10.257812 -10.113281 10.734375 -9.085938 10.734375 -7.796875 C 10.734375 -6.953125 10.523438 -6.21875 10.109375 -5.59375 C 9.703125 -4.976562 9.125 -4.492188 8.375 -4.140625 C 7.632812 -3.796875 6.757812 -3.625 5.75 -3.625 Z M 3.0625 0.15625 C 2.394531 0.15625 1.925781 0.0351562 1.65625 -0.203125 C 1.382812 -0.441406 1.25 -0.859375 1.25 -1.453125 L 1.25 -5.09375 L 4.625 -5.09375 L 4.625 -0.015625 C 4.488281 0.015625 4.269531 0.0507812 3.96875 0.09375 C 3.675781 0.132812 3.375 0.15625 3.0625 0.15625 Z M 4.609375 -6.265625 L 5.53125 -6.265625 C 6.0625 -6.265625 6.488281 -6.394531 6.8125 -6.65625 C 7.144531 -6.925781 7.3125 -7.304688 7.3125 -7.796875 C 7.3125 -8.273438 7.160156 -8.644531 6.859375 -8.90625 C 6.554688 -9.175781 6.113281 -9.3125 5.53125 -9.3125 C 5.320312 -9.3125 5.148438 -9.304688 5.015625 -9.296875 C 4.878906 -9.296875 4.742188 -9.28125 4.609375 -9.25 Z M 4.609375 -6.265625 "/></g></g></g><g fill="#000000" fill-opacity="1"><g transform="translate(31.92162, 44.337659)"><g><path d="M 4.28125 -6.609375 L 4.28125 -4.421875 L 1 -4.421875 L 1 -7.109375 C 1 -7.484375 1.097656 -7.804688 1.296875 -8.078125 C 1.492188 -8.359375 1.753906 -8.601562 2.078125 -8.8125 C 2.523438 -9.082031 3.050781 -9.285156 3.65625 -9.421875 C 4.257812 -9.566406 4.882812 -9.640625 5.53125 -9.640625 C 6.9375 -9.640625 7.640625 -9.144531 7.640625 -8.15625 C 7.640625 -7.925781 7.601562 -7.710938 7.53125 -7.515625 C 7.46875 -7.316406 7.394531 -7.144531 7.3125 -7 C 7.175781 -7.019531 7.019531 -7.035156 6.84375 -7.046875 C 6.664062 -7.066406 6.46875 -7.078125 6.25 -7.078125 C 5.925781 -7.078125 5.582031 -7.035156 5.21875 -6.953125 C 4.863281 -6.878906 4.550781 -6.765625 4.28125 -6.609375 Z M 1 -5.09375 L 4.28125 -5.09375 L 4.28125 -0.015625 C 4.132812 0.015625 3.929688 0.0507812 3.671875 0.09375 C 3.410156 0.132812 3.125 0.15625 2.8125 0.15625 C 2.1875 0.15625 1.726562 0.046875 1.4375 -0.171875 C 1.144531 -0.390625 1 -0.796875 1 -1.390625 Z M 1 -5.09375 "/></g></g></g><g fill="#000000" fill-opacity="1"><g transform="translate(39.475118, 44.337659)"><g><path d="M 10.703125 -4.6875 C 10.703125 -3.65625 10.492188 -2.765625 10.078125 -2.015625 C 9.660156 -1.273438 9.070312 -0.703125 8.3125 -0.296875 C 7.5625 0.109375 6.675781 0.3125 5.65625 0.3125 C 4.632812 0.3125 3.742188 0.113281 2.984375 -0.28125 C 2.222656 -0.6875 1.632812 -1.257812 1.21875 -2 C 0.800781 -2.75 0.59375 -3.644531 0.59375 -4.6875 C 0.59375 -5.695312 0.804688 -6.570312 1.234375 -7.3125 C 1.660156 -8.0625 2.25 -8.640625 3 -9.046875 C 3.757812 -9.453125 4.644531 -9.65625 5.65625 -9.65625 C 6.664062 -9.65625 7.546875 -9.445312 8.296875 -9.03125 C 9.046875 -8.625 9.632812 -8.046875 10.0625 -7.296875 C 10.488281 -6.554688 10.703125 -5.6875 10.703125 -4.6875 Z M 5.65625 -7.09375 C 5.125 -7.09375 4.707031 -6.882812 4.40625 -6.46875 C 4.101562 -6.050781 3.953125 -5.457031 3.953125 -4.6875 C 3.953125 -3.882812 4.097656 -3.273438 4.390625 -2.859375 C 4.691406 -2.453125 5.113281 -2.25 5.65625 -2.25 C 6.1875 -2.25 6.597656 -2.457031 6.890625 -2.875 C 7.191406 -3.300781 7.34375 -3.90625 7.34375 -4.6875 C 7.34375 -5.445312 7.191406 -6.035156 6.890625 -6.453125 C 6.585938 -6.878906 6.175781 -7.09375 5.65625 -7.09375 Z M 5.65625 -7.09375 "/></g></g></g><g fill="#000000" fill-opacity="1"><g transform="translate(50.767023, 44.337659)"><g><path d="M -0.140625 1.96875 C 0.171875 1.8125 0.421875 1.632812 0.609375 1.4375 C 0.804688 1.25 0.945312 1.03125 1.03125 0.78125 C 1.125 0.53125 1.171875 0.222656 1.171875 -0.140625 L 1.171875 -4.46875 L 4.453125 -4.46875 L 4.453125 0.171875 C 4.453125 1.003906 4.328125 1.6875 4.078125 2.21875 C 3.828125 2.75 3.492188 3.140625 3.078125 3.390625 C 2.660156 3.640625 2.203125 3.765625 1.703125 3.765625 C 1.148438 3.765625 0.707031 3.59375 0.375 3.25 C 0.0507812 2.90625 -0.117188 2.476562 -0.140625 1.96875 Z M 0.921875 -11.96875 C 0.921875 -12.457031 1.085938 -12.867188 1.421875 -13.203125 C 1.753906 -13.535156 2.1875 -13.703125 2.71875 -13.703125 C 3.25 -13.703125 3.679688 -13.535156 4.015625 -13.203125 C 4.347656 -12.867188 4.515625 -12.457031 4.515625 -11.96875 C 4.515625 -11.5 4.347656 -11.09375 4.015625 -10.75 C 3.679688 -10.40625 3.25 -10.234375 2.71875 -10.234375 C 2.1875 -10.234375 1.753906 -10.40625 1.421875 -10.75 C 1.085938 -11.09375 0.921875 -11.5 0.921875 -11.96875 Z M 4.453125 -3.375 L 1.171875 -3.375 L 1.171875 -9.234375 C 1.316406 -9.273438 1.519531 -9.3125 1.78125 -9.34375 C 2.039062 -9.382812 2.328125 -9.40625 2.640625 -9.40625 C 3.285156 -9.40625 3.75 -9.296875 4.03125 -9.078125 C 4.3125 -8.867188 4.453125 -8.460938 4.453125 -7.859375 Z M 4.453125 -3.375 "/></g></g></g><g fill="#000000" fill-opacity="1"><g transform="translate(56.297362, 44.337659)"><g><path d="M 2.578125 -3.21875 L 2.46875 -5.375 L 6.921875 -6.109375 C 6.898438 -6.367188 6.769531 -6.625 6.53125 -6.875 C 6.300781 -7.132812 5.941406 -7.265625 5.453125 -7.265625 C 4.941406 -7.265625 4.515625 -7.097656 4.171875 -6.765625 C 3.828125 -6.429688 3.644531 -5.957031 3.625 -5.34375 L 3.734375 -3.71875 C 3.867188 -3.125 4.160156 -2.710938 4.609375 -2.484375 C 5.066406 -2.253906 5.582031 -2.140625 6.15625 -2.140625 C 6.6875 -2.140625 7.195312 -2.207031 7.6875 -2.34375 C 8.175781 -2.488281 8.570312 -2.644531 8.875 -2.8125 C 9.070312 -2.6875 9.242188 -2.503906 9.390625 -2.265625 C 9.535156 -2.035156 9.609375 -1.796875 9.609375 -1.546875 C 9.609375 -1.117188 9.445312 -0.765625 9.125 -0.484375 C 8.8125 -0.210938 8.378906 -0.015625 7.828125 0.109375 C 7.273438 0.242188 6.640625 0.3125 5.921875 0.3125 C 4.921875 0.3125 4.015625 0.125 3.203125 -0.25 C 2.398438 -0.632812 1.765625 -1.207031 1.296875 -1.96875 C 0.828125 -2.726562 0.59375 -3.675781 0.59375 -4.8125 C 0.59375 -5.664062 0.726562 -6.398438 1 -7.015625 C 1.28125 -7.628906 1.648438 -8.128906 2.109375 -8.515625 C 2.578125 -8.898438 3.097656 -9.1875 3.671875 -9.375 C 4.242188 -9.5625 4.832031 -9.65625 5.4375 -9.65625 C 6.351562 -9.65625 7.148438 -9.476562 7.828125 -9.125 C 8.503906 -8.769531 9.035156 -8.285156 9.421875 -7.671875 C 9.804688 -7.066406 10 -6.367188 10 -5.578125 C 10 -5.140625 9.878906 -4.800781 9.640625 -4.5625 C 9.398438 -4.332031 9.0625 -4.1875 8.625 -4.125 Z M 2.578125 -3.21875 "/></g></g></g><g fill="#000000" fill-opacity="1"><g transform="translate(66.876305, 44.337659)"><g><path d="M 6.28125 -7.078125 C 5.644531 -7.078125 5.09375 -6.867188 4.625 -6.453125 C 4.15625 -6.046875 3.921875 -5.441406 3.921875 -4.640625 C 3.921875 -3.847656 4.144531 -3.257812 4.59375 -2.875 C 5.039062 -2.488281 5.597656 -2.296875 6.265625 -2.296875 C 6.648438 -2.296875 6.992188 -2.34375 7.296875 -2.4375 C 7.597656 -2.53125 7.851562 -2.628906 8.0625 -2.734375 C 8.300781 -2.554688 8.484375 -2.363281 8.609375 -2.15625 C 8.734375 -1.945312 8.796875 -1.695312 8.796875 -1.40625 C 8.796875 -0.894531 8.539062 -0.484375 8.03125 -0.171875 C 7.519531 0.140625 6.796875 0.296875 5.859375 0.296875 C 4.796875 0.296875 3.867188 0.109375 3.078125 -0.265625 C 2.285156 -0.640625 1.671875 -1.195312 1.234375 -1.9375 C 0.804688 -2.675781 0.59375 -3.578125 0.59375 -4.640625 C 0.59375 -5.773438 0.832031 -6.710938 1.3125 -7.453125 C 1.789062 -8.191406 2.421875 -8.742188 3.203125 -9.109375 C 3.984375 -9.472656 4.835938 -9.65625 5.765625 -9.65625 C 6.679688 -9.65625 7.390625 -9.488281 7.890625 -9.15625 C 8.398438 -8.820312 8.65625 -8.390625 8.65625 -7.859375 C 8.65625 -7.617188 8.597656 -7.390625 8.484375 -7.171875 C 8.367188 -6.960938 8.234375 -6.78125 8.078125 -6.625 C 7.859375 -6.726562 7.59375 -6.828125 7.28125 -6.921875 C 6.976562 -7.023438 6.644531 -7.078125 6.28125 -7.078125 Z M 6.28125 -7.078125 "/></g></g></g><g fill="#000000" fill-opacity="1"><g transform="translate(76.299074, 44.337659)"><g><path d="M 1.046875 -5.09375 L 4.28125 -5.09375 L 4.28125 -3.21875 C 4.28125 -2.894531 4.382812 -2.660156 4.59375 -2.515625 C 4.8125 -2.367188 5.113281 -2.296875 5.5 -2.296875 C 5.6875 -2.296875 5.882812 -2.3125 6.09375 -2.34375 C 6.300781 -2.375 6.476562 -2.414062 6.625 -2.46875 C 6.75 -2.34375 6.851562 -2.1875 6.9375 -2 C 7.019531 -1.820312 7.0625 -1.613281 7.0625 -1.375 C 7.0625 -0.894531 6.875 -0.492188 6.5 -0.171875 C 6.132812 0.140625 5.488281 0.296875 4.5625 0.296875 C 3.4375 0.296875 2.566406 0.0390625 1.953125 -0.46875 C 1.347656 -0.988281 1.046875 -1.828125 1.046875 -2.984375 Z M 3.15625 -6.65625 L 3.15625 -9.15625 L 6.8125 -9.15625 C 6.882812 -9.03125 6.957031 -8.859375 7.03125 -8.640625 C 7.101562 -8.421875 7.140625 -8.179688 7.140625 -7.921875 C 7.140625 -7.472656 7.035156 -7.148438 6.828125 -6.953125 C 6.628906 -6.753906 6.363281 -6.65625 6.03125 -6.65625 Z M 4.28125 -4.625 L 1.046875 -4.625 L 1.046875 -11.546875 C 1.179688 -11.585938 1.378906 -11.628906 1.640625 -11.671875 C 1.910156 -11.722656 2.191406 -11.75 2.484375 -11.75 C 3.117188 -11.75 3.578125 -11.640625 3.859375 -11.421875 C 4.140625 -11.203125 4.28125 -10.796875 4.28125 -10.203125 Z M 4.28125 -4.625 "/></g></g></g></g></g></g></svg>